<svg width="102" height="6" viewBox="0 0 102 6" fill="none" xmlns="http://www.w3.org/2000/svg">
<path d="M101.338 4.31874C100.358 4.1792 99.3576 4.25734 98.3784 4.10106C98.2116 3.78848 98.0071 4.27967 97.7973 4.06757C97.6735 3.94477 97.4045 3.98384 97.2485 4.00059C96.2907 4.09547 95.3437 3.74941 94.3914 3.9336C94.1385 3.98384 93.9394 3.83871 93.6865 3.86662C93.4767 3.88895 93.1592 3.89453 92.9817 3.77173C92.8095 3.64894 92.6911 3.83871 92.6319 3.77732C92.406 3.54288 92.293 3.88337 92.0939 3.8722C91.8464 3.86104 91.6796 3.64335 91.4267 3.69917C91.2168 3.74382 90.9855 3.68801 90.781 3.74383C90.4743 3.82197 90.2483 3.57079 89.947 3.58754C89.6726 3.5987 89.3606 3.76615 89.1023 3.49823C89.07 3.47032 89.0001 3.46474 88.957 3.47032C88.2145 3.5987 87.4881 3.2638 86.7456 3.38101C86.4766 3.42567 86.1914 3.33078 85.9385 3.33636C85.6964 3.34194 85.4865 3.22472 85.239 3.25821C84.97 3.2917 84.6526 3.44241 84.3943 3.18007C84.1199 3.48707 83.8509 3.11309 83.5657 3.16332C83.2751 3.21914 82.9738 3.2024 82.6779 3.20798C82.4734 3.20798 82.2421 3.31403 82.086 3.07402C81.9139 3.36985 81.7524 3.02936 81.5749 3.06843C81.5049 3.0796 81.4942 2.90656 81.3381 2.99587C81.0637 3.15774 80.7839 3.12425 80.4557 3.00704C80.1221 2.88982 79.6863 3.08518 79.3419 2.97913C78.9976 2.87307 78.707 2.78935 78.3896 2.98471C77.9269 2.76144 77.4157 3.05727 76.9637 2.84517C76.7969 2.76702 76.657 2.78377 76.5064 2.78377C76.2374 2.77818 75.9414 2.86749 75.7101 2.7726C75.4303 2.6498 75.2527 2.86191 75.016 2.86749C74.6178 2.87307 74.2681 2.65539 73.8592 2.69446C73.6977 2.7112 73.5309 2.66097 73.3426 2.72237C73.1973 2.76702 73.0036 2.42653 72.8207 2.73911C72.6539 2.57166 72.4279 2.56608 72.2504 2.63306C72.0459 2.70562 71.906 2.39304 71.7069 2.58841C71.4648 2.82284 71.3303 2.34839 71.0559 2.48793C70.8783 2.57724 70.6308 2.52142 70.4156 2.52701C70.2004 2.53817 69.969 2.4991 69.7699 2.56608C69.5762 2.63306 69.4471 2.32606 69.3018 2.49352C69.0866 2.73353 68.9682 2.46561 68.8283 2.41537C68.6185 2.33165 68.5109 2.67213 68.2849 2.50468C68.1504 2.40421 68.0374 2.78377 67.8383 2.5605C67.6661 2.36514 67.4294 2.48793 67.2303 2.4991C67.0312 2.51026 66.8859 2.3763 66.7191 2.35397C66.4286 2.3149 66.1273 2.38746 65.8314 2.37072C65.5516 2.35397 65.2449 2.52701 64.992 2.25908C64.9651 2.23117 64.8521 2.23117 64.8413 2.2535C64.6423 2.7112 64.3463 2.11954 64.0988 2.33723C63.8997 2.51026 63.6522 2.24792 63.3993 2.29816C63.1142 2.35955 62.8075 2.34839 62.5116 2.33723C62.2587 2.32606 61.9735 2.48235 61.7529 2.22559C61.6399 2.40979 61.4354 2.1921 61.3601 2.28699C61.1772 2.51584 61.1234 2.16419 60.9727 2.23117C60.8113 2.29816 60.5907 2.17536 60.4669 2.39863C59.8374 2.05814 59.1164 2.5605 58.4923 2.18652C58.3954 2.42654 58.1963 2.15861 58.0995 2.26466C57.9865 2.38746 57.7874 2.42095 57.7444 2.36514C57.5345 2.08047 57.2978 2.40421 57.0879 2.30374C56.8351 2.17536 56.5499 2.22559 56.3078 2.28141C56.0549 2.33723 55.845 2.07489 55.6029 2.24234C55.3984 2.38188 55.194 2.20327 54.9788 2.21443C54.7958 2.22001 54.5698 2.53259 54.4138 2.17536C54.1986 2.48793 53.978 2.07489 53.7305 2.18652C53.5206 2.27583 53.2516 2.22001 53.0095 2.23117C52.7674 2.24234 52.4929 2.18094 52.2885 2.28141C52.0571 2.38746 51.8742 1.98 51.6751 2.27025C51.5406 2.0414 51.2716 2.40421 51.1478 2.14187C50.7066 2.38188 50.2439 2.14745 49.7919 2.1921C49.2808 2.24234 48.7642 2.2535 48.2531 2.2535C47.9733 2.2535 47.672 2.40979 47.4137 2.1307C47.3653 2.07489 47.177 2.09163 47.1016 2.14745C46.6443 2.50468 46.1224 2.27583 45.6327 2.34839C45.4713 2.03023 45.2615 2.57166 45.057 2.29816C44.8848 2.0693 44.605 2.40421 44.4705 2.33165C44.223 2.19768 43.997 2.3149 43.7711 2.26466C43.4321 2.1921 43.1092 2.4991 42.7703 2.30932C42.469 2.54933 42.1623 2.26466 41.8448 2.33165C41.4789 2.40979 41.0915 2.3763 40.7095 2.39304L39.6549 2.4377L38.5196 2.48235C38.1699 2.4991 37.8148 2.48793 37.465 2.53259C37.1799 2.56608 36.8624 2.42095 36.6203 2.66655C36.5127 2.77818 36.4643 2.65539 36.4481 2.61631C36.2598 2.22001 35.9208 2.6498 35.7002 2.46003C35.3128 2.70004 34.9147 2.61631 34.495 2.5605C34.2528 2.52701 33.9731 2.66655 33.704 2.67771C31.9984 2.73911 30.2981 2.81168 28.5925 2.87866C28.4042 2.88424 28.1997 2.94564 28.0275 2.88982C27.8231 2.82284 27.7262 3.17449 27.4841 2.97355C27.3711 2.87866 27.1236 2.93447 26.9407 2.95122C26.7362 2.96796 26.5102 2.87866 26.3488 3.11309C26.2035 3.33078 26.0798 2.85633 25.8968 3.09076C25.7408 3.2917 25.6332 3.0796 25.4987 3.01262C25.2942 2.90656 25.2135 3.33636 25.0198 3.16891C24.8315 3.01262 24.7346 3.01262 24.5517 3.17449C24.4548 3.2638 24.245 3.21914 24.0836 3.23031C23.5186 3.25821 22.9483 3.2638 22.3833 3.30287C22.1304 3.31961 21.8507 3.21914 21.63 3.4759C21.5762 3.5373 21.4148 3.4759 21.3234 3.51497C21.0059 3.65452 20.7423 3.15774 20.4356 3.43683C20.1773 3.67126 19.8706 3.51497 19.5908 3.57637C19.2411 3.65452 18.8483 3.46474 18.5362 3.77173C18.2833 3.39776 17.9497 3.7215 17.6969 3.74383C17.4709 3.76615 17.2503 3.46474 17.0189 3.74383C16.8198 3.98384 16.5078 3.81081 16.2603 3.88337C15.8998 3.98942 15.5446 4.02291 15.1788 3.92244C14.7698 3.81639 14.447 4.15687 14.0381 4.15129C13.6614 4.15129 13.2364 4.01733 12.892 4.34107C12.8436 4.38573 12.736 4.35223 12.6553 4.35782C12.3862 4.36898 12.0688 4.29083 11.859 4.41363C11.6491 4.53643 11.4124 4.3634 11.2294 4.56992C11.1649 4.64248 10.9712 4.59225 10.8366 4.59783C10.5838 4.60341 10.3578 4.35223 10.0672 4.60899C9.89505 4.7597 9.55607 4.54201 9.33009 4.80994C9.25476 4.89924 9.01801 4.83784 8.8566 4.84343C8.30778 4.85459 7.78587 4.99972 7.28547 5.2174C7.07563 5.30671 6.94112 5.05553 6.88193 5.10577C6.52682 5.43509 6.02642 5.12251 5.69821 5.41835C5.54217 5.55789 5.51527 5.20066 5.40228 5.37927C5.33771 5.48533 5.23548 5.50765 5.12787 5.49649C4.56829 5.44625 4.06252 5.81465 3.49756 5.73092C2.79271 6.08257 2.02867 5.88163 1.30229 5.99326C0.952555 6.04908 0.667385 5.7365 0.306888 5.84256C0.242321 5.8593 0.0862847 5.68627 0.0378597 5.57463C-0.0858932 5.2788 0.107807 4.86575 0.414499 4.65923C0.796519 4.40247 1.17316 4.13455 1.5498 3.87779C1.87263 3.6601 2.24927 3.69359 2.53444 3.49265C2.85727 3.2638 3.19087 3.21356 3.56213 3.19123C3.83654 3.17449 4.07328 2.90656 4.37997 3.00145C4.69743 3.09634 4.88574 2.75586 5.19782 2.78377C5.46685 2.80609 5.79506 2.90656 6.01566 2.59957C6.31159 2.85633 6.5591 2.42095 6.84427 2.53817C7.07563 2.24234 7.39847 2.43212 7.67288 2.35955C7.97419 2.28141 8.32392 2.48235 8.57681 2.16978C8.81893 2.53817 9.11487 1.99674 9.22248 2.14745C9.44846 2.46003 9.6314 2.08605 9.80896 2.1921C10.0027 2.30374 10.078 2.03023 10.2771 2.0693C10.4654 2.11396 10.7129 2.14187 10.8528 1.89627C10.9819 2.08605 11.1756 2.03581 11.3586 2.04698C11.6814 2.0693 11.9289 1.7958 12.2571 1.82929C12.553 1.8572 12.849 1.80696 13.1503 1.80138C13.4193 1.80138 13.6668 1.68975 13.9197 1.62277C14.0973 1.57811 14.291 1.58927 14.4793 1.58369C14.7483 1.57253 15.0658 1.65067 15.281 1.52788C15.5715 1.36042 15.8137 1.62835 16.045 1.51113C16.2441 1.41066 16.4755 1.48322 16.6638 1.34926C16.7606 1.28228 16.8683 1.31577 16.9382 1.41066C17.0243 1.52229 17.1642 1.50555 17.2341 1.46089C17.6969 1.1539 18.2134 1.27112 18.7084 1.25437C18.9828 1.24321 19.1711 0.891558 19.4348 1.05901C19.6446 1.19297 19.876 1.01436 20.0643 1.18181C20.0966 1.20972 20.2042 1.20413 20.2203 1.17623C20.3333 0.96412 20.5378 1.18739 20.6239 1.09808C20.8122 0.902721 21.0328 1.00319 21.2319 0.980865C21.5278 0.947375 21.8237 0.952957 22.1251 0.941793C22.4479 0.93063 22.8245 1.01436 23.0828 0.874812C23.3841 0.712942 23.594 0.947375 23.8576 0.885976C24.1428 0.818995 24.4495 0.846904 24.7454 0.83574C24.9068 0.830158 25.1436 0.891558 25.2189 0.80225C25.3749 0.618052 25.574 0.841322 25.7031 0.690615C25.8107 0.562235 26.0367 0.584562 26.069 0.629216C26.225 0.824577 26.3058 0.67387 26.4403 0.612471C26.5425 0.567817 26.6878 0.562235 26.8169 0.662706C27.0537 0.841322 27.4572 0.824577 27.5487 0.679452C27.7639 0.350129 27.9576 0.796668 28.1459 0.606889C28.3181 0.428273 28.5279 0.517581 28.7001 0.685033C28.8508 0.830158 28.9638 0.333384 29.1413 0.640379C29.9861 0.305475 30.8739 0.523163 31.7347 0.383619C31.9069 0.355711 32.0576 0.601307 32.1221 0.484091C32.262 0.249658 32.375 0.623634 32.4826 0.461764C32.5956 0.28873 32.7786 0.338966 32.9238 0.355711C33.3651 0.389201 33.8224 0.16035 34.2475 0.456182C34.312 0.500836 34.4519 0.445019 34.5488 0.41711C34.5918 0.405946 34.6133 0.316639 34.6618 0.299893C35.033 0.177095 35.3935 0.4506 35.7217 0.378038C36.0715 0.299893 36.3782 0.115696 36.7494 0.311057C36.9646 0.428273 37.3521 0.422692 37.4274 0.305475C37.5834 0.0431336 37.7395 0.411528 37.8578 0.232913C37.9439 0.104533 38.1699 0.411528 38.2506 0.138023C38.7241 0.389201 39.2352 0.221749 39.7249 0.260821C39.9186 0.556653 40.0639 0.210586 40.2468 0.205004C41.4897 0.19384 42.7326 0.12686 43.9755 0.076624C44.1047 0.076624 44.2176 0.0822057 44.3522 0.138023C44.6696 0.271985 45.0193 0.28873 45.326 0.076624C45.4337 0.00406142 45.5466 -0.0182655 45.622 0.0152249C46.273 0.299893 46.9348 0.054297 47.5913 0.0989509C47.8979 0.121278 48.21 -0.029429 48.5113 0.216167C48.6889 0.355711 48.9418 -0.0350107 49.1785 0.199422C49.4745 -0.107573 49.7919 0.199422 50.0986 0.165932C50.4483 0.12686 50.8088 0.076624 51.1478 0.132441C51.4975 0.188259 51.8258 0.216167 52.1486 0.076624C52.3746 -0.0182655 52.6006 0.249658 52.7727 0.121278C53.0364 -0.0685012 53.2355 0.216167 53.4076 0.171514C53.6551 0.0989509 53.8381 0.0598788 54.0964 0.149187C54.3331 0.232913 54.6398 0.188259 54.8981 0.12686C55.4092 0.00406142 55.9204 0.327802 56.4208 0.0877875C56.9803 0.411528 57.5776 0.0598788 58.1318 0.199422C58.3416 0.249658 58.5622 0.121278 58.7398 0.28873C58.8689 0.0598788 59.1541 0.394783 59.2725 0.12686C59.9988 0.378038 60.7413 0.19384 61.4785 0.216167C61.6345 0.54549 61.9574 -0.0852464 62.1026 0.327802C62.2963 0.0822057 62.4846 0.378038 62.6945 0.338966C63.0066 0.283148 63.3402 0.266403 63.6522 0.383619C64.0073 0.0431335 64.3194 0.528745 64.6907 0.439437C64.992 0.361293 65.3794 0.232913 65.6861 0.523163C66.0896 0.171514 66.6277 0.846904 67.0097 0.333384C67.4886 0.70736 68.0428 0.28873 68.5485 0.500836C69.0597 0.718524 69.6085 0.478509 70.1358 0.54549C70.3833 0.57898 70.6147 0.696197 70.8891 0.690615C71.1635 0.679452 71.5132 0.992029 71.6962 0.791086C71.9275 0.534326 72.2127 1.04785 72.3365 0.657125C73.079 0.975284 73.8914 0.495254 74.634 0.863649C75.5594 0.863649 76.4849 1.07017 77.4103 0.919466C77.787 0.858067 78.1259 0.992029 78.4864 1.04785C78.8416 1.10366 79.229 0.880394 79.5625 1.17064C79.5948 1.19855 79.6702 1.17623 79.724 1.17064C80.4934 1.02552 81.2413 1.33251 82.0161 1.26553C82.4519 1.22646 82.9146 1.30461 83.3343 1.43857C83.5603 1.51113 83.8078 1.13157 83.9746 1.50555C84.5826 1.3995 85.1691 1.70649 85.7825 1.60602C86.0892 1.55578 86.3905 1.57253 86.7026 1.71765C86.9501 1.82929 87.2729 1.59486 87.5365 1.8572C87.6764 2.00232 87.741 1.69533 87.9185 1.73998C88.4727 1.86836 89.027 2.04698 89.6027 1.94651C89.9578 1.88511 90.2322 2.18094 90.5981 2.09721C90.894 2.03023 91.2061 2.03023 91.5182 2.19768C91.6849 2.28699 91.9432 2.19768 92.1584 2.1921C92.3414 2.18652 92.4651 2.33723 92.6642 2.35955C93.6273 2.45444 94.5904 2.54933 95.5105 2.87866C95.5321 2.88424 95.559 2.90098 95.5805 2.90098C95.7957 2.8954 96.0217 2.92331 96.2261 2.86749C96.4898 2.78935 96.6458 3.05727 96.8987 3.03494C97.0816 3.0182 97.2485 3.23589 97.4852 3.17449C97.6681 3.12983 97.878 3.20798 98.0448 3.24705C98.26 3.30287 98.4698 3.23589 98.6635 3.2917C99.1047 3.4145 99.5513 3.49265 100.003 3.58754C100.595 3.70475 101.192 3.80522 101.774 4.00059C101.87 4.03408 101.989 3.98942 101.999 4.15687C102.01 4.38014 101.849 4.33549 101.725 4.34665C101.591 4.35782 101.456 4.35782 101.322 4.3634M101.343 4.08989C101.322 4.0564 101.3 4.01733 101.278 3.98384C101.262 4.00059 101.225 4.02849 101.23 4.03966C101.241 4.07873 101.268 4.11222 101.284 4.15129C101.3 4.13455 101.316 4.11222 101.338 4.08989" fill="#020202"/>
</svg>
